<svg xmlns="http://www.w3.org/2000/svg" viewBox="0 0 377.16 85.21"><title>logo</title><path d="M191.24,73.61a17.68,17.68,0,0,1-1.91,8.32,14.86,14.86,0,0,1-4.82,5.64,14,14,0,0,1-4.8,2.06,28.7,28.7,0,0,1-6.2.58H163V61.86L167.87,57h5.95a26.3,26.3,0,0,1,6.31.68,14,14,0,0,1,4.46,1.94,14.49,14.49,0,0,1,4.87,5.66A18.57,18.57,0,0,1,191.24,73.61Zm-8-.06a13.56,13.56,0,0,0-1.07-5.62,8.14,8.14,0,0,0-5.83-4.53,21.13,21.13,0,0,0-3.73-.24h-2V84h2a21.42,21.42,0,0,0,4-.28,8.15,8.15,0,0,0,2.51-1,8,8,0,0,0,3.1-3.58,13.92,13.92,0,0,0,1-5.59Z" transform="translate(-70.59 -27.58)"/><path d="M219.81,77.68q0,6.18-3.25,9.75T207.44,91q-5.87,0-9.11-3.56t-3.25-9.75c0-4.15,1.09-7.42,3.27-9.78s5.21-3.55,9.09-3.55,7,1.19,9.14,3.57S219.81,73.56,219.81,77.68Zm-8.91,6.1a6.88,6.88,0,0,0,1.1-2.32,15.66,15.66,0,0,0,.35-3.74A16,16,0,0,0,212,74a6.72,6.72,0,0,0-1-2.39,3.63,3.63,0,0,0-1.55-1.3,4.84,4.84,0,0,0-1.95-.38,5.38,5.38,0,0,0-1.86.31A3.75,3.75,0,0,0,204,71.52a6.5,6.5,0,0,0-1,2.38,15.35,15.35,0,0,0-.39,3.82,16.43,16.43,0,0,0,.34,3.57,6.61,6.61,0,0,0,1,2.42A3.85,3.85,0,0,0,205.46,85a5.21,5.21,0,0,0,3.92,0A3.49,3.49,0,0,0,210.9,83.78Z" transform="translate(-70.59 -27.58)"/><path d="M241.35,65.13v7.66h-.64a5.76,5.76,0,0,0-1.48-.27q-1-.09-1.71-.09a15.52,15.52,0,0,0-2.72.22,15.24,15.24,0,0,0-2.55.76v16.8H225V68.71l3.58-3.58h3.68" transform="translate(-70.59 -27.58)"/><path d="M417.64,65.13v7.66H417a6.22,6.22,0,0,0-1.49-.27c-.68-.06-1.25-.09-1.7-.09a15.63,15.63,0,0,0-2.73.22,15.24,15.24,0,0,0-2.55.76v16.8h-7.25V68.71l3.58-3.58h3.67" transform="translate(-70.59 -27.58)"/><path d="M251.33,90.88a7.24,7.24,0,0,1-5.39-2.21A7.7,7.7,0,0,1,243.77,83a8.21,8.21,0,0,1,1.1-4.49A7.59,7.59,0,0,1,248,75.78a16.19,16.19,0,0,1,5-1.43c2-.28,4-.49,6.17-.62v-.14a3,3,0,0,0-1.52-2.87,10,10,0,0,0-4.51-.79,11.89,11.89,0,0,0-3.82.7c-1.35.47-2.32.83-2.91,1.09h-.66V65.66c.76-.22,2-.48,3.73-.79a29.93,29.93,0,0,1,5.17-.46c4.11,0,7.09.71,8.92,2.11s2.74,3.62,2.74,6.63V86.44l-3.77,3.77m-3.41-6.56V78.44c-1,.09-2,.21-3.17.37a13.65,13.65,0,0,0-2.6.54,3.5,3.5,0,0,0-1.65,1.1,3,3,0,0,0-.58,1.91,5.42,5.42,0,0,0,.12,1.27,2.07,2.07,0,0,0,.61.93,2.82,2.82,0,0,0,1.1.66,6.74,6.74,0,0,0,2,.21,5.39,5.39,0,0,0,2.2-.49,6.74,6.74,0,0,0,2-1.29Z" transform="translate(-70.59 -27.58)"/><path d="M309.36,90.88A7.25,7.25,0,0,1,304,88.67,7.77,7.77,0,0,1,301.8,83a8.22,8.22,0,0,1,1.11-4.49A7.62,7.62,0,0,1,306,75.78a16.19,16.19,0,0,1,5-1.43q3-.42,6.17-.62v-.14a3,3,0,0,0-1.53-2.87,9.93,9.93,0,0,0-4.5-.79,11.62,11.62,0,0,0-3.82.7c-1.35.47-2.33.83-2.91,1.09h-.67V65.66c.77-.22,2-.48,3.73-.79a30,30,0,0,1,5.18-.46c4.11,0,7.08.71,8.91,2.11s2.74,3.62,2.74,6.63V86.44l-3.77,3.77m-3.4-6.56V78.44c-1,.09-2,.21-3.18.37a12.69,12.69,0,0,0-2.59.54,3.53,3.53,0,0,0-1.66,1.1,3,3,0,0,0-.57,1.91,5.42,5.42,0,0,0,.12,1.27,2.05,2.05,0,0,0,.6.93,2.79,2.79,0,0,0,1.11.66,6.74,6.74,0,0,0,2,.21,5.39,5.39,0,0,0,2.2-.49,6.93,6.93,0,0,0,2-1.29Z" transform="translate(-70.59 -27.58)"/><path d="M298.8,63.39H285v6.18h12.8V76H285V90.21h-7.68v-29L281.63,57H298.8Z" transform="translate(-70.59 -27.58)"/><path d="M343,90.88a17.58,17.58,0,0,1-5.39-.78,11.57,11.57,0,0,1-4.26-2.41,11.07,11.07,0,0,1-2.77-4.11,17.81,17.81,0,0,1,.07-11.86,11.14,11.14,0,0,1,3-4.22,11.44,11.44,0,0,1,4.22-2.33,17,17,0,0,1,5-.73A15.54,15.54,0,0,1,347,65a19.09,19.09,0,0,1,3.64,1.46V73.3h-1l-1-.94a10.37,10.37,0,0,0-1.45-1,8.64,8.64,0,0,0-1.81-.81,7.07,7.07,0,0,0-2.28-.32,5.29,5.29,0,0,0-4.45,2,8.92,8.92,0,0,0-1.56,5.55,8.25,8.25,0,0,0,1.6,5.49,5.61,5.61,0,0,0,4.53,1.88,8.11,8.11,0,0,0,2.45-.35,7.61,7.61,0,0,0,1.82-.81,7.77,7.77,0,0,0,1.2-.94c.35-.33.67-.65,1-1h1v6.86a19.21,19.21,0,0,1-3.57,1.41A15.11,15.11,0,0,1,343,90.88Z" transform="translate(-70.59 -27.58)"/><path d="M369.88,90a19,19,0,0,1-2.47.52,22.81,22.81,0,0,1-3.2.19c-2.81,0-4.91-.63-6.28-1.9s-2.06-3.43-2.06-6.5V70.58h-3V65.13h3V58h7.25v7.17h6.76v5.45h-6.76v11.2a5.13,5.13,0,0,0,.32,1.77,2.32,2.32,0,0,0,1,1.24,3.73,3.73,0,0,0,2.07.46A5.39,5.39,0,0,0,368,85a6,6,0,0,0,1.28-.49h.6Z" transform="translate(-70.59 -27.58)"/><path d="M397.28,77.68q0,6.18-3.25,9.75T384.91,91q-5.87,0-9.11-3.56t-3.25-9.75c0-4.15,1.09-7.42,3.27-9.78s5.21-3.55,9.09-3.55,7,1.19,9.14,3.57S397.28,73.56,397.28,77.68Zm-8.91,6.1a6.7,6.7,0,0,0,1.06-2.32,15.66,15.66,0,0,0,.35-3.74,16.47,16.47,0,0,0-.36-3.7,6.72,6.72,0,0,0-1-2.39,3.63,3.63,0,0,0-1.55-1.3,4.84,4.84,0,0,0-1.95-.38,5.38,5.38,0,0,0-1.86.31,3.74,3.74,0,0,0-1.55,1.26,6.47,6.47,0,0,0-1.06,2.38,15.35,15.35,0,0,0-.39,3.82,16.43,16.43,0,0,0,.34,3.57,6.61,6.61,0,0,0,1,2.42A4,4,0,0,0,382.93,85a5.21,5.21,0,0,0,3.92,0A3.49,3.49,0,0,0,388.37,83.78Z" transform="translate(-70.59 -27.58)"/><path d="M433.11,81.34l5.15-16.21h7.44L433.16,99.41H425.3L428.89,90l-8.78-24.89h7.6Z" transform="translate(-70.59 -27.58)"/><polygon points="367.93 35.57 375.59 35.57 377.16 31.99 369.27 31.99 367.93 35.57" style="fill:#ff7e36"/><path d="M140.78,71.28l-24.67,9.66a3.9,3.9,0,0,0-2,2l-9.44,27.46a1.82,1.82,0,0,0,1.13,2.3,1.9,1.9,0,0,0,1.18,0l23.62-9.08a6.8,6.8,0,0,0,3.67-3.88l8.87-26.22a1.8,1.8,0,0,0-1.2-2.26A1.77,1.77,0,0,0,140.78,71.28Z" transform="translate(-70.59 -27.58)" style="fill:#ff7e36;fill-rule:evenodd"/><path d="M139.07,68.94l-22.21,8.68c-2.19.34-3.45-.78-5-2l-26.69-21a3.32,3.32,0,0,1,1.53-6l24.14-5.75a3.31,3.31,0,0,1,2.29.53l9.8,6.55a20.86,20.86,0,0,0-4-.81C108.45,48.3,99.1,51.84,98.7,57s8.29,9.88,18.67,10.7,13.43-2.23,13.83-7.35c0-.2-4-8.39-4-8.6l12.63,9.51C142.09,62.75,141.66,68,139.07,68.94Z" transform="translate(-70.59 -27.58)" style="fill:#ff7e36;fill-rule:evenodd"/><path d="M96.64,27.64c1.56-.6,6.18,3.29,9,5.21,2.58-.88,6.53-1.85,10-1.3a15.63,15.63,0,0,1,4.89,1.52c1.47-1,9.39-7.09,9.9-5a12.29,12.29,0,0,1,.12,4.68,84.75,84.75,0,0,1-1.87,8.47c-.35,1.4-1.29,2.76-1.16,4a34.69,34.69,0,0,0,.93,5.65c.48,1.69.72,3.5,1.86,4.67,6.2,4.8,11.67,11.7,12.81,15.11a2.87,2.87,0,0,1-.7,3.37,4.39,4.39,0,0,1-5.47-.11,30.06,30.06,0,0,1-3.72-3.59c-.89-.91-1.82-1.78-2.8-2.6a1.7,1.7,0,0,0-1-.51,8.49,8.49,0,0,0-2.33.54A55.16,55.16,0,0,1,120.22,69c.89,1.08,2.8,2.59,4,3.91a5.37,5.37,0,0,1,1.63,3.26c0,1.19-1.33,2.87-4.89,2.39a27.32,27.32,0,0,1-5-2C101.46,68,100.85,59.76,99.19,45.82c-.57-3.82-2.32-8.62-3-12.82-.29-1.78-1-4.72.47-5.32" transform="translate(-70.59 -27.58)" style="fill:#050000;fill-rule:evenodd"/><path d="M124.12,42.77c-.74.08-1.33,1.41-2.17,2-1.25.91-3.09.56-3-.15s.5-.76,1.58-.92,3-1,2.38-4.09c-.51-2.69-3.55-2.08-3.55-2.08a2.37,2.37,0,0,0-1.88-1.1c-1.32-.1-2.42,1.61-2.42,1.61a.85.85,0,0,1-1.17-.26.79.79,0,0,1-.12-.3,2,2,0,0,0-2.47-.92,2.74,2.74,0,0,0-1.89,2.9,2.33,2.33,0,0,0,2.46,1.66c.89-.06,1.46.42,1.38.84-.14.66-1.93,1.15-3.66.15a3.49,3.49,0,0,1-1.39-2.47l.06-.8s-2.77,0-3.41,2.33,1,3.47,1.91,3.38c.64-.06.16-.94.93-1.66a.83.83,0,0,1,1.13,0,.72.72,0,0,1-.12,1,.6.6,0,0,1-.15.09c-.45.25-.79,1.41.49,2.14.57.32-.3,2-1.32.73-.59-.77-.54-1.1-1.17-1a2.67,2.67,0,0,1-1.54-.65c-.12-.09-.87.3-.58,1.16s.25,2,3.16,2.11c.6,0,.8.13.93.61s1.57,2.68,3.71,1.5a1.74,1.74,0,0,0,1-2.25,1.7,1.7,0,0,0-1.11-1.06.87.87,0,0,1-.66-1,.89.89,0,0,1,.16-.34c.25-.25.49-.16,1.13.1,1.82.74,2.67,3,1.48,4-.5.4.51,1.06,1.34,1.18s4-.2,4.38-2a7.55,7.55,0,0,0,.08-1.71c0-.83,1.23-.93,1.26-.38s0,.66.24.89c.7.63,2.57-.18,3.11-1.42S125.06,42.65,124.12,42.77Zm-8.3,3.49c-.33,0-.77-.48-.53-.75a2.73,2.73,0,0,0,.6-2c-.06-.71-.47-1-.49-1.39a.71.71,0,0,1,.58-.69c.7-.22,1.24,1.38,1.18,2.75C117.12,45.28,116.58,46.25,115.82,46.26Zm.75-8.11c.25-.66.66-.59.83-.58s.64.19.62.62c0,0-.25,1.32.25,1.73a2.65,2.65,0,0,0,2,.36.63.63,0,0,1,.42.8.61.61,0,0,1-.25.34,2.91,2.91,0,0,1-3.12-.39A3,3,0,0,1,116.57,38.15Z" transform="translate(-70.59 -27.58)" style="fill:#fff;stroke:#de6f28;stroke-miterlimit:10;stroke-width:0.5px"/><path d="M83.73,56.82,110.42,77.7a3.6,3.6,0,0,1,1.21,4l-9.13,26.46a3.6,3.6,0,0,1-5.64,1.73L72,89a3.62,3.62,0,0,1-1.23-4l7.31-26.46a3.59,3.59,0,0,1,4.53-2.31A3.54,3.54,0,0,1,83.73,56.82Z" transform="translate(-70.59 -27.58)" style="fill:#ff7e36;fill-rule:evenodd"/><path d="M97.06,82.78a12.15,12.15,0,0,1-.26,4.69A7.4,7.4,0,0,1,95,91a4.33,4.33,0,0,1-2.75,1.35,4.92,4.92,0,0,1-2.3-.43,14.06,14.06,0,0,1-2.71-1.57L82.7,87.22l3.46-14.08,2.69-1L91.39,74A16.56,16.56,0,0,1,94,76.19a11.52,11.52,0,0,1,1.67,2.31A12.44,12.44,0,0,1,97.06,82.78ZM92.3,87.51A6,6,0,0,0,93.4,85a8.57,8.57,0,0,0,.22-3.11,6.86,6.86,0,0,0-1-2.84,7.47,7.47,0,0,0-.93-1.17,13.28,13.28,0,0,0-1.57-1.23l-.83-.59L86.76,86.44l.83.59a11.69,11.69,0,0,0,1.76,1.08,3.25,3.25,0,0,0,1.19.25,2.32,2.32,0,0,0,1.76-.85" transform="translate(-70.59 -27.58)" style="fill:#fff"/><path d="M133,82.18l-1,3.36-6.38,2.33-1,3.23,5.91-2.16-1,3.36-5.91,2.16-2.27,7.41-3.56,1.3,4.63-15.12,2.66-3Z" transform="translate(-70.59 -27.58)" style="fill:#fff"/></svg>