<svg width="24px" height="24px" viewBox="0 0 157 148" fill="none" xmlns="http://www.w3.org/2000/svg"><path d="M36.8994 81.5033L41.0563 50.3401L5 25.3652L37.9442 36.4997L45.7245 24.5889L74.1339 7L136.754 41.4237L140 93.9464L112.102 132.629L90.0502 136L101.454 115.173V95.1219L93.1624 79.4627L84.7374 73.8955L71.7775 87.2258V101.332L61.6631 110.781L48.8144 112.334L43.1237 115.55L33.7873 112.578L29.8971 98.6042L36.8994 88.7784V81.5033Z" fill="white"></path><path d="M95 25.1201C88.1618 23.6585 80.6819 24.0467 80.6819 24.0467C80.6819 24.0467 78.2254 35.7625 63 38.8456C63.1107 38.8456 83.1162 45.9025 95 25.1201Z" fill="#94A6C3"></path><path d="M100.87 129.198C109.165 122.693 115.392 113.738 118.261 103.603C118.395 103.224 119.551 102.556 120.33 102.044C121.619 101.264 122.932 100.618 123.176 99.5709C123.688 96.586 123.955 93.4673 123.955 90.3487C123.955 89.1903 122.776 88.0097 121.619 86.8513C120.708 86.0717 119.796 85.1584 119.796 84.5124C118.506 72.6838 113.057 61.6349 104.362 53.5932L103.45 54.5065C111.879 62.4368 117.327 73.2184 118.506 84.646C118.639 85.693 119.662 86.7177 120.708 87.7646C121.619 88.5443 122.665 89.7249 122.665 90.2373C122.665 93.2223 122.398 96.2073 121.886 99.1923C121.753 99.7046 120.596 100.239 119.685 100.752C118.395 101.398 117.216 102.044 116.971 103.091C113.858 114.139 106.719 123.763 97.245 130C98.9352 126.369 104.25 114.54 107.097 108.548L106.586 89.324L90.1062 73.3521L80.7656 74.6441L70.5132 91.2843C70.5132 91.2843 75.317 97.3879 68.5562 104.538C61.9511 111.555 56.747 113.115 56.747 113.115L51.9433 110.508C53.3667 108.682 56.2355 105.964 58.4372 104.138C62.1957 101.019 65.9542 100.752 65.9542 97.3879C66.1098 90.3487 58.5707 92.2867 58.5707 92.2867L55.8352 94.893L54.6788 104.516L48.9855 111.667L48.3406 111.533L39 109.462C39 109.462 44.7155 106.477 45.6273 103.091C46.5392 99.8383 43.8037 89.0567 43.6703 88.4107C43.8037 88.5443 46.4057 90.7496 47.5622 94.3806C49.6304 88.6557 52.3659 83.1981 53.1443 82.6857C53.9226 82.1734 64.4196 76.5821 64.4196 76.5821L60.9281 85.8044L63.5301 84.3787L69.7571 69.0528C69.7571 69.0528 75.8507 66.0678 80.3875 66.0678C88.5494 65.9341 100.625 55.9322 95.1767 38C96.7335 38.646 123.71 52.1676 128.38 78.676C131.872 99.0586 120.33 118.149 100.87 129.198Z" fill="#94A6C3"></path><path d="M69.9373 27.7938C72.944 24.2403 71.7772 19 71.7772 19L63.004 31.9995C62.8694 31.9995 66.1229 32.1345 69.9373 27.7938Z" fill="#1B314F"></path><path d="M40.8627 98.3229L41.9429 93C41.9429 93 37.5075 100.722 37.1168 101.795C36.7031 103.006 37.3926 105.131 39.1162 104.994C40.8627 104.857 43 102.321 43 100.47C43 98.0716 40.8627 98.3229 40.8627 98.3229Z" fill="#1B314F"></path><path d="M118.1 15.4873C118.1 15.4873 124.585 15.7543 131.316 16.533C116.145 4.58546 101.774 1.09243 90.1127 1.09243C74.0536 1.09243 63.1699 7.72252 62.5035 8.10074L67.5678 0.0467481C67.5678 0.0467481 47.3551 -1.91113 40.2252 19.5143C38.4038 14.9756 36.7379 8.34548 36.7379 8.34548C36.7379 8.34548 26.2318 17.5787 31.1628 32.8857C19.1018 28.4805 1.88768 22.3621 1.22133 22.2509C0.310645 22.1174 0.0441045 22.5178 0.0441045 22.5178C0.0441045 22.5178 -0.222437 22.8961 0.554975 23.5635C1.99874 24.6982 29.2081 44.8332 35.1831 48.7267C33.8948 53.3989 33.8948 55.6015 35.1831 57.8041C37.0045 60.7855 37.1155 62.3428 36.8712 64.5455C36.6046 66.7481 34.2724 85.8374 33.7615 88.1735C33.2507 90.5096 27.8088 98.8083 28.0531 101.278C28.3197 103.748 31.6736 114.249 34.6722 115.428C36.8712 116.207 42.3131 117.898 45.9336 117.898C47.2219 117.898 48.3991 117.631 48.91 117.119C51.1089 115.183 51.7531 114.783 53.3079 114.783C53.4411 114.783 53.5744 114.783 53.6855 114.783C54.3296 114.783 55.107 114.916 56.0177 114.916C58.0834 114.916 60.8154 114.516 62.7479 112.714C65.591 109.866 70.522 105.972 72.0768 104.148C74.0314 101.678 75.0532 98.3189 74.5423 94.9371C74.1425 91.8223 75.8306 89.0857 77.7852 86.3714C80.2507 83.1231 84.7819 77.2939 84.7819 77.2939C93.7333 84.013 99.3084 94.2696 99.3084 105.683C99.3084 125.929 81.6945 142.282 59.927 142.282C56.5508 142.282 53.3301 141.904 50.0872 141.125C60.0602 144.618 68.4785 145.797 75.3641 145.797C90.0017 145.797 97.7758 140.48 97.7758 140.48C97.7758 140.48 95.066 143.995 90.6458 148C90.7791 148 90.7791 148 90.7791 148C115.012 144.618 126.807 124.639 126.807 124.639C126.807 124.639 125.896 131.136 124.741 135.541C156.97 111.268 151.528 80.8982 151.395 79.8748C151.661 80.253 154.904 84.1465 156.57 86.2379C161.768 32.7522 118.1 15.4873 118.1 15.4873ZM68.4785 100.9C67.9676 101.545 65.7687 103.503 64.2138 104.927C62.659 106.351 60.9709 107.775 59.6826 109.087C59.1718 109.599 58.1278 109.866 56.573 109.866C56.0621 109.866 55.529 109.866 55.1515 109.866C54.8849 109.866 54.6406 109.866 54.374 109.866C54.1075 109.866 53.9742 109.866 53.8632 109.866C53.4634 109.866 53.0858 109.866 52.6859 109.866C54.6406 107.263 60.3268 101.3 62.2814 100.01C64.6137 98.4523 65.7909 96.8949 64.3471 94.1806C62.9256 91.444 59.1718 92.1115 59.1718 92.1115C59.1718 92.1115 61.3707 91.1993 63.3254 91.1993C60.8599 90.5541 57.7502 91.1993 56.3287 92.6232C54.7738 94.0471 55.0404 99.1198 54.3963 102.346C53.7521 105.728 51.5531 107.419 48.177 110.533C46.3556 112.224 45.0673 112.736 44.0234 112.736C41.8244 112.358 39.2256 111.69 37.4043 111.045C36.116 109.354 34.1614 103.77 33.6505 101.434C34.0281 100.143 35.5829 97.4067 36.3603 95.8493C37.9151 92.8679 38.8258 91.1771 39.0924 89.6197C39.6032 87.417 41.2913 73.7786 41.9355 68.083C43.6236 70.2856 45.9558 73.9344 45.4227 76.2705C49.1765 70.9531 46.4667 65.7469 45.1562 63.6778C44.0012 61.6087 42.4463 57.4482 43.7346 53.0429C45.0229 48.6377 49.6874 36.4232 49.6874 36.4232C49.6874 36.4232 51.2422 39.1598 53.4411 38.6258C55.6401 38.1141 73.3873 11.3713 73.3873 11.3713C73.3873 11.3713 78.185 21.8726 73.1208 29.5484C67.9454 37.2019 62.8811 38.6258 62.8811 38.6258C62.8811 38.6258 70.0111 39.9163 76.608 35.1106C79.3178 41.4737 81.9166 48.0815 82.0499 48.9937C81.6501 49.9059 76.4747 62.3651 75.9639 63.1438C75.6973 63.4108 73.8982 63.9225 72.5877 64.1895C70.3887 64.8347 69.1004 65.2352 68.5673 65.6134C67.6567 66.3921 63.5031 77.8056 61.5706 83.39C59.2384 84.0352 56.9062 85.3479 55.2181 87.9288C56.1288 87.2835 58.9719 86.8831 61.0598 86.6383C62.8811 86.5048 68.4341 89.4862 69.8778 95.0706C69.8778 95.204 69.8778 95.204 69.8778 95.3375C70.1666 97.3844 69.5225 99.3423 68.4785 100.9ZM56.3065 102.457C57.4837 100.766 57.3504 97.9184 57.4837 97.0062C57.617 96.094 57.8613 94.4031 58.9052 94.1584C59.9492 93.8914 62.4147 94.2919 62.4147 96.094C62.4147 97.7849 60.5933 98.1631 59.305 99.3423C58.3722 100.232 56.5508 102.19 56.3065 102.457ZM107.993 77.6499C109.281 71.0421 109.415 65.3242 109.037 60.652C114.079 67.3933 117.189 75.5808 118.1 84.013C118.233 85.0587 119.255 86.0821 120.299 87.1278C121.209 87.9065 122.253 88.9522 122.253 89.5974C122.253 92.5787 121.987 95.56 121.476 98.5636C121.342 98.9418 120.187 99.6093 119.277 100.121C117.988 100.766 116.811 101.411 116.567 102.457C113.724 112.447 107.616 121.279 99.4639 127.509C111.503 114.916 117.322 94.1361 107.993 77.6499ZM99.8415 128.666C108.26 122.169 114.746 113.092 117.589 102.835C117.722 102.457 118.877 101.79 119.654 101.278C120.943 100.633 122.253 99.854 122.497 98.8083C123.008 95.827 123.275 92.7122 123.275 89.5974C123.275 88.4405 122.098 87.2613 120.943 86.1044C120.299 85.3257 119.255 84.4135 119.255 83.7683C118.211 74.2904 114.457 65.3464 108.637 57.9376C106.039 42.3636 95.6879 37.5579 95.4213 37.4244C95.6879 37.8249 102.418 47.5475 97.7536 58.9611C92.9558 70.5081 80.6505 68.706 79.6066 68.8172C78.5626 68.8172 74.5645 74.0011 69.5002 83.6125C68.8561 83.3455 66.1241 82.7003 63.0144 83.2343C65.3466 76.7377 68.8561 67.5268 69.5002 66.7481C69.7668 66.4811 71.6992 65.9694 73.0097 65.5911C75.4752 64.9459 76.6302 64.5455 77.03 64.0337C77.2966 63.6333 78.5848 60.652 79.8731 57.5372C81.0503 57.5372 84.0267 57.2702 84.271 57.1367C84.5376 56.8697 87.0031 50.5288 87.0031 49.7501C87.0031 49.1049 81.9388 36.5122 80.0064 31.7065C80.9171 30.6608 81.8278 29.3704 82.7162 27.9465C109.281 30.8166 130.027 53.3989 130.027 80.7647C130.027 101.79 117.722 120.1 99.8415 128.666Z" fill="#1B314F"></path><path d="M64.7686 59.1048C67.2321 56.2797 65.9449 51.0048 61.3953 50.0999C62.5715 47.4073 64.236 42 64.236 42C64.236 42 51.0311 62.5919 49.8771 62.9892C48.7009 63.3865 47.5468 58.862 47.5468 58.862C45.0834 68.2641 51.6969 69.5442 52.4737 66.5867C56.0911 65.6597 62.3052 61.7974 64.7686 59.1048Z" fill="#1B314F"></path><path d="M54 64L60.5751 52C60.5751 52 64.3727 54.0347 62.463 57.2717C60.076 61.0405 54 64 54 64Z" fill="#FFD923"></path><path d="M137.637 117.055C135.71 119.666 133.541 122.389 131 125C147.472 92.7078 131.767 63.1605 131.131 62C132.292 63.1828 133.431 64.4772 134.461 65.6376C147.1 79.9426 148.633 101.434 137.637 117.055Z" fill="#D82122"></path><path d="M153 76C147.178 60.2113 138.92 46.7708 120.723 34.6497C103.168 22.9088 84.3061 23.8257 83.2657 23.9599C83.1328 23.9599 83 23.9599 83 23.9599C83.642 23.6915 84.284 23.5573 84.926 23.4455C88.933 22.1484 94.0911 21.0973 99.2713 20.4488C112.975 18.4584 126.789 23.1548 136.219 33.2184C136.352 33.3526 136.352 33.3526 136.485 33.4868C147.2 44.9593 152.756 59.2944 153 76Z" fill="#D82122"></path><path d="M116 11.7423C96.6964 8.042 84.2568 9.88082 75.3048 13.3314C75.0382 12.2645 74.1274 10.1532 73.35 8.42792C70.6621 11.7423 67.7966 15.7151 65.9973 18.235C61.0659 21.6856 59 25 59 25C61.8433 15.0568 70.1512 7.65607 80.2584 5.79455C83.1017 5.27242 86.2116 5 89.5881 5C98.5179 5.13621 107.448 7.38365 116 11.7423Z" fill="#D82122"></path><path d="M45 36C29.6497 35.4936 34.7589 18.0127 35.029 17C35.029 17.1321 36.0644 30.7381 45 36Z" fill="#D82122"></path><path d="M60 5C48.1135 12.0853 50.4908 29 50.4908 29C39.125 11.8379 59.0717 5.40487 60 5Z" fill="#D82122"></path><path d="M39.9534 40.8899C40.7245 41.5238 41.4957 42.6821 40.5923 44.3432C40.0856 45.2393 39.3144 45.1081 38.1467 44.6054C36.6043 43.8405 27.3505 38.4858 19 33C28.5182 36.3221 38.1467 39.8846 39.689 40.6495C39.689 40.6495 39.8212 40.7807 39.9534 40.8899Z" fill="white"></path></svg>