<svg width="24px" height="24px" viewBox="0 0 162 148" fill="none" xmlns="http://www.w3.org/2000/svg"><path d="M32.931 9L158 94.3179L127.069 140L2 54.0103L32.931 9Z" fill="url(#sushi-paint0_linear)"></path><path d="M159.279 94.45C148.478 110.007 112.026 103.919 77.5989 79.5697C42.4969 55.8965 23.5959 24.1067 33.7215 8.55C44.5221 -7.00669 80.9741 -0.919289 115.401 23.4303C150.503 46.4272 169.404 78.8933 159.279 94.45Z" fill="url(#sushi-paint1_linear)"></path><path d="M127.287 139.423C116.534 155.029 80.2444 148.922 45.9707 124.497C11.6971 100.071 -7.79181 68.8604 2.9607 52.5767C13.7132 36.9714 50.0029 43.0778 84.2766 67.5035C118.55 91.9291 137.367 123.818 127.287 139.423Z" fill="url(#sushi-paint2_linear)"></path><path d="M158.491 94.1388L127.708 139.702C117.001 155.113 80.8654 148.412 46.7371 124.961C40.0453 120.27 34.0226 115.58 28 110.22C32.6843 109.55 38.7069 106.87 44.7296 100.169C55.4365 88.7785 60.7899 86.0983 65.4742 86.7683C70.1585 86.7683 75.5119 91.4586 84.2113 102.849C92.9107 114.24 104.956 117.59 112.317 111.56C112.986 110.89 113.655 110.89 114.325 110.22C120.347 105.53 122.355 103.519 133.731 82.0781C136.408 76.7177 145.776 68.0072 158.491 72.0274C161.836 80.738 161.836 88.1084 158.491 94.1388Z" fill="#0E0F23"></path><path fill-rule="evenodd" clip-rule="evenodd" d="M153.844 91.1026C144.37 104.527 111.209 97.815 79.4013 75.6643C46.9171 53.5137 27.968 25.322 37.4425 11.8974C46.9171 -1.52727 80.0781 5.18504 111.886 27.3357C143.693 49.4863 162.642 77.678 153.844 91.1026ZM124.067 70.9657C119.33 77.678 103.088 74.3219 86.8456 63.5822C71.2803 52.8425 61.8057 38.7466 66.543 32.0343C71.2803 25.322 87.5224 28.6781 103.765 39.4178C119.33 50.1575 128.804 64.2534 124.067 70.9657Z" fill="white"></path><path d="M30.405 24.0448C30.405 23.306 29.705 22.5672 29.005 23.306C28.305 24.0448 27.605 24.0448 27.605 24.7836C28.305 27 29.005 28.4776 29.005 29.9552C29.005 30.694 29.705 31.4328 30.405 30.694C31.105 30.694 31.805 29.9552 31.105 29.2164C31.105 27.7388 31.105 26.2612 30.405 24.0448Z" fill="white"></path><path d="M34.0016 34.9446C34.0016 34.2767 33.3344 33.6087 32.6672 34.2767C32 34.9446 32 34.9446 32 35.6125C39.3394 52.3106 54.6853 70.3446 74.7018 83.7031C75.369 84.3711 76.0362 83.7031 76.7035 83.7031C77.3707 83.0352 76.7035 82.3673 76.7035 81.6994C56.0198 68.3409 41.341 50.9748 34.0016 34.9446Z" fill="white"></path><path d="M115.385 100.4C114.692 100.4 114 100.4 114 101.1C114 101.8 114 102.5 114.692 102.5C116.769 103.2 119.538 103.9 121.615 104.6C122.308 104.6 123 104.6 123 103.9C123 103.2 123 102.5 122.308 102.5C120.231 101.8 117.462 101.1 115.385 100.4Z" fill="white"></path><path d="M127.357 103.605C126.679 103.605 126 104.305 126 105.005C126 105.705 126.679 106.405 127.357 106.405C132.786 107.105 138.893 107.805 143.643 107.105C144.321 107.105 145 106.405 145 105.705C145 105.005 144.321 104.305 143.643 104.305C138.214 105.005 132.786 104.305 127.357 103.605Z" fill="white"></path><defs><linearGradient id="sushi-paint0_linear" x1="57.4351" y1="19.7573" x2="75.4979" y2="81.7253" gradientUnits="userSpaceOnUse"><stop stop-color="#03B8FF"></stop><stop offset="1" stop-color="#FA52A0"></stop></linearGradient><linearGradient id="sushi-paint1_linear" x1="78.8262" y1="13.6985" x2="94.96" y2="69.2092" gradientUnits="userSpaceOnUse"><stop stop-color="#03B8FF"></stop><stop offset="1" stop-color="#FA52A0"></stop></linearGradient><linearGradient id="sushi-paint2_linear" x1="37.3419" y1="35.5378" x2="53.8925" y2="92.9155" gradientUnits="userSpaceOnUse"><stop stop-color="#03B8FF"></stop><stop offset="1" stop-color="#FA52A0"></stop></linearGradient></defs></svg>