<svg width="136" height="36" viewBox="0 0 136 36" fill="none" xmlns="http://www.w3.org/2000/svg">
<path d="M97.8952 16.8193V19.8936H95.9682V21.9096H97.8952V28.7599C97.8952 31.099 98.9533 32.0346 101.615 32.0346C102.083 32.0346 102.529 31.9789 102.919 31.9121V29.9183C102.585 29.9517 102.373 29.974 102.005 29.974C100.813 29.974 100.29 29.417 100.29 28.1472V21.9096H102.919V19.8936H100.29V16.8193H97.8952Z" fill="#BBDDEF"/>
<path d="M109.7 32.2017C113.242 32.2017 115.414 29.8292 115.414 25.8973C115.414 21.9876 113.231 19.604 109.7 19.604C106.158 19.604 103.975 21.9876 103.975 25.8973C103.975 29.8292 106.147 32.2017 109.7 32.2017ZM109.7 30.0742C107.617 30.0742 106.448 28.5482 106.448 25.8973C106.448 23.2685 107.617 21.7314 109.7 21.7314C111.772 21.7314 112.953 23.2685 112.953 25.8973C112.953 28.5371 111.772 30.0742 109.7 30.0742Z" fill="#BBDDEF"/>
<path d="M117.273 31.9678H119.668V24.8057C119.668 23.1015 120.948 21.9542 122.764 21.9542C123.187 21.9542 123.9 22.0322 124.101 22.099V19.7376C123.844 19.6708 123.388 19.6374 123.031 19.6374C121.45 19.6374 120.102 20.5062 119.757 21.698H119.578V19.8379H117.273V31.9678Z" fill="#BBDDEF"/>
<path d="M130.047 21.6423C131.818 21.6423 132.976 22.8787 133.032 24.7834H126.906C127.039 22.8898 128.276 21.6423 130.047 21.6423ZM133.021 28.693C132.575 29.6398 131.584 30.1633 130.136 30.1633C128.22 30.1633 126.984 28.8156 126.906 26.6881V26.5544H135.471V25.719C135.471 21.9096 133.433 19.604 130.058 19.604C126.638 19.604 124.466 22.0656 124.466 25.9418C124.466 29.818 126.594 32.2017 130.069 32.2017C132.843 32.2017 134.781 30.8651 135.327 28.693H133.021Z" fill="#BBDDEF"/>
<path d="M82.1904 27.4884C82.3752 30.467 84.8573 32.3718 88.5516 32.3718C92.5 32.3718 94.9706 30.3746 94.9706 27.1882C94.9706 24.683 93.5621 23.2976 90.1448 22.501L88.3092 22.0508C86.1388 21.5428 85.2614 20.8617 85.2614 19.6726C85.2614 18.1717 86.6237 17.1904 88.6671 17.1904C90.6066 17.1904 91.9458 18.1486 92.1883 19.6841H94.705C94.5549 16.8787 92.0844 14.9045 88.7017 14.9045C85.0651 14.9045 82.6407 16.8787 82.6407 19.8457C82.6407 22.2932 84.0145 23.7479 87.0277 24.4521L89.1751 24.9716C91.3801 25.4911 92.3499 26.2531 92.3499 27.523C92.3499 29.0008 90.826 30.0744 88.7479 30.0744C86.5198 30.0744 84.9727 29.07 84.7534 27.4884H82.1904Z" fill="#BBDDEF"/>
<path d="M57.3828 19.6374C55.7343 19.6374 54.3086 20.4616 53.5734 21.8428H53.3952V19.8379H51.0895V35.9999H53.4843V30.1299H53.6737C54.3086 31.4109 55.6786 32.1683 57.4051 32.1683C60.4682 32.1683 62.4175 29.7512 62.4175 25.8973C62.4175 22.0433 60.4682 19.6374 57.3828 19.6374ZM56.7034 30.0185C54.6984 30.0185 53.4398 28.4368 53.4398 25.9084C53.4398 23.3688 54.6984 21.7871 56.7145 21.7871C58.7417 21.7871 59.9558 23.3354 59.9558 25.8973C59.9558 28.4703 58.7417 30.0185 56.7034 30.0185Z" fill="#BBDDEF"/>
<path d="M70.7972 19.6374C69.1487 19.6374 67.723 20.4616 66.9878 21.8428H66.8096V19.8379H64.5039V35.9999H66.8987V30.1299H67.0881C67.723 31.4109 69.093 32.1683 70.8195 32.1683C73.8826 32.1683 75.8319 29.7512 75.8319 25.8973C75.8319 22.0433 73.8826 19.6374 70.7972 19.6374ZM70.1178 30.0185C68.1128 30.0185 66.8542 28.4368 66.8542 25.9084C66.8542 23.3688 68.1128 21.7871 70.1289 21.7871C72.1561 21.7871 73.3703 23.3354 73.3703 25.8973C73.3703 28.4703 72.1561 30.0185 70.1178 30.0185Z" fill="#BBDDEF"/>
<path d="M46.7928 31.9678H49.5405L43.5257 15.3086H40.7434L34.7285 31.9678H37.3838L38.9193 27.5461H45.2689L46.7928 31.9678ZM42.0017 18.3334H42.198L44.6109 25.3757H39.5773L42.0017 18.3334Z" fill="#BBDDEF"/>
<path d="M36.3376 2.74308V10.7796H39.2392C41.634 10.7796 43.0208 9.3037 43.0208 6.73626C43.0208 4.2078 41.6229 2.74308 39.2392 2.74308H36.3376ZM37.5852 3.87921H39.1C40.7652 3.87921 41.751 4.93738 41.751 6.75297C41.751 8.5964 40.7819 9.64343 39.1 9.64343H37.5852V3.87921Z" fill="#BBDDEF"/>
<path d="M47.2679 10.8965C49.039 10.8965 50.125 9.71026 50.125 7.7443C50.125 5.78948 49.0334 4.59765 47.2679 4.59765C45.4969 4.59765 44.4053 5.78948 44.4053 7.7443C44.4053 9.71026 45.4913 10.8965 47.2679 10.8965ZM47.2679 9.83279C46.2265 9.83279 45.6417 9.06979 45.6417 7.7443C45.6417 6.42995 46.2265 5.66139 47.2679 5.66139C48.3038 5.66139 48.8942 6.42995 48.8942 7.7443C48.8942 9.06422 48.3038 9.83279 47.2679 9.83279Z" fill="#BBDDEF"/>
<path d="M59.3733 4.71461H58.176L57.0955 9.34269H57.0008L55.7533 4.71461H54.606L53.3585 9.34269H53.2694L52.1834 4.71461H50.9693L52.6401 10.7796H53.8709L55.1184 6.31299H55.2131L56.4662 10.7796H57.7081L59.3733 4.71461Z" fill="#BBDDEF"/>
<path d="M60.7523 10.7796H61.9497V7.23193C61.9497 6.28515 62.5122 5.6948 63.3977 5.6948C64.2832 5.6948 64.7065 6.17933 64.7065 7.15396V10.7796H65.9039V6.85322C65.9039 5.41077 65.1576 4.59765 63.8043 4.59765C62.8909 4.59765 62.2894 5.00421 61.9943 5.67809H61.9051V4.71461H60.7523V10.7796Z" fill="#BBDDEF"/>
<path d="M67.7897 10.7796H68.9871V2.34766H67.7897V10.7796Z" fill="#BBDDEF"/>
<path d="M73.4904 10.8965C75.2614 10.8965 76.3474 9.71026 76.3474 7.7443C76.3474 5.78948 75.2559 4.59765 73.4904 4.59765C71.7194 4.59765 70.6278 5.78948 70.6278 7.7443C70.6278 9.71026 71.7138 10.8965 73.4904 10.8965ZM73.4904 9.83279C72.4489 9.83279 71.8642 9.06979 71.8642 7.7443C71.8642 6.42995 72.4489 5.66139 73.4904 5.66139C74.5263 5.66139 75.1166 6.42995 75.1166 7.7443C75.1166 9.06422 74.5263 9.83279 73.4904 9.83279Z" fill="#BBDDEF"/>
<path d="M79.9151 9.87177C79.2635 9.87177 78.7901 9.55432 78.7901 9.00853C78.7901 8.47388 79.1688 8.18985 80.0042 8.13415L81.4857 8.03947V8.54628C81.4857 9.29813 80.8173 9.87177 79.9151 9.87177ZM79.6088 10.8798C80.4052 10.8798 81.068 10.5345 81.43 9.92746H81.5246V10.7796H82.6775V6.63601C82.6775 5.35507 81.8198 4.59765 80.2994 4.59765C78.9238 4.59765 77.9436 5.26597 77.8211 6.30742H78.9795C79.1131 5.87859 79.5754 5.63354 80.2437 5.63354C81.0624 5.63354 81.4857 5.99554 81.4857 6.63601V7.15953L79.8427 7.2542C78.4003 7.34331 77.5872 7.97264 77.5872 9.06422C77.5872 10.1725 78.4393 10.8798 79.6088 10.8798Z" fill="#BBDDEF"/>
<path d="M86.7408 10.8798C87.5762 10.8798 88.2835 10.4844 88.6455 9.82165H88.7402V10.7796H89.8875V2.34766H88.6901V5.67809H88.601C88.2724 5.00978 87.5707 4.61436 86.7408 4.61436C85.2093 4.61436 84.2235 5.82846 84.2235 7.7443C84.2235 9.66571 85.1982 10.8798 86.7408 10.8798ZM87.0806 5.68923C88.083 5.68923 88.7124 6.48564 88.7124 7.74987C88.7124 9.01967 88.0886 9.80494 87.0806 9.80494C86.067 9.80494 85.4599 9.03081 85.4599 7.7443C85.4599 6.46893 86.0725 5.68923 87.0806 5.68923Z" fill="#BBDDEF"/>
<path d="M97.6522 10.8965C99.4232 10.8965 100.509 9.71026 100.509 7.7443C100.509 5.78948 99.4177 4.59765 97.6522 4.59765C95.8812 4.59765 94.7896 5.78948 94.7896 7.7443C94.7896 9.71026 95.8756 10.8965 97.6522 10.8965ZM97.6522 9.83279C96.6107 9.83279 96.026 9.06979 96.026 7.7443C96.026 6.42995 96.6107 5.66139 97.6522 5.66139C98.6881 5.66139 99.2784 6.42995 99.2784 7.7443C99.2784 9.06422 98.6881 9.83279 97.6522 9.83279Z" fill="#BBDDEF"/>
<path d="M102.094 10.7796H103.292V7.23193C103.292 6.28515 103.854 5.6948 104.74 5.6948C105.625 5.6948 106.048 6.17933 106.048 7.15396V10.7796H107.246V6.85322C107.246 5.41077 106.5 4.59765 105.146 4.59765C104.233 4.59765 103.631 5.00421 103.336 5.67809H103.247V4.71461H102.094V10.7796Z" fill="#BBDDEF"/>
<path d="M112.761 3.20533V4.74245H111.797V5.75049H112.761V9.17561C112.761 10.3452 113.29 10.813 114.621 10.813C114.855 10.813 115.077 10.7851 115.272 10.7517V9.75482C115.105 9.77152 114.999 9.78266 114.816 9.78266C114.22 9.78266 113.958 9.5042 113.958 8.8693V5.75049H115.272V4.74245H113.958V3.20533H112.761Z" fill="#BBDDEF"/>
<path d="M116.88 10.7796H118.077V7.2375C118.077 6.31856 118.623 5.70037 119.603 5.70037C120.45 5.70037 120.901 6.19047 120.901 7.15953V10.7796H122.098V6.86435C122.098 5.42191 121.302 4.60322 120.01 4.60322C119.096 4.60322 118.456 5.00978 118.161 5.68923H118.066V2.34766H116.88V10.7796Z" fill="#BBDDEF"/>
<path d="M126.418 5.61683C127.303 5.61683 127.882 6.23502 127.91 7.18737H124.847C124.914 6.24059 125.532 5.61683 126.418 5.61683ZM127.905 9.14219C127.682 9.61558 127.186 9.87734 126.462 9.87734C125.504 9.87734 124.886 9.20346 124.847 8.13972V8.07289H129.13V7.65519C129.13 5.75049 128.111 4.59765 126.423 4.59765C124.713 4.59765 123.627 5.82846 123.627 7.76658C123.627 9.70469 124.691 10.8965 126.429 10.8965C127.815 10.8965 128.785 10.2282 129.057 9.14219H127.905Z" fill="#BBDDEF"/>
<path d="M21.3479 16.9905C21.3792 14.5242 22.6816 12.1905 24.7477 10.8987C23.4443 9.00556 21.2611 7.80525 18.9897 7.73298C16.5671 7.47438 14.2184 9.20726 12.9839 9.20726C11.7255 9.20726 9.82477 7.75866 7.77798 7.80149C5.11009 7.88914 2.62294 9.43172 1.32495 11.8038C-1.4652 16.7165 0.616002 23.9366 3.28874 27.9077C4.62597 29.8523 6.1888 32.0244 8.23374 31.9473C10.2348 31.8629 10.9822 30.6496 13.3977 30.6496C15.7908 30.6496 16.492 31.9473 18.5784 31.8984C20.7257 31.8629 22.0785 29.9452 23.3689 27.9822C24.3296 26.5967 25.069 25.0654 25.5595 23.445C23.036 22.3595 21.3509 19.7769 21.3479 16.9905Z" fill="#BBDDEF"/>
<path d="M17.407 5.12139C18.5777 3.69205 19.1545 1.85486 19.0149 0C17.2262 0.191058 15.5739 1.06045 14.3873 2.43496C13.227 3.77792 12.6232 5.58278 12.7373 7.36674C14.5267 7.38548 16.2857 6.53965 17.407 5.12139Z" fill="#BBDDEF"/>
</svg>
