<svg width="154" height="36" viewBox="0 0 154 36" fill="none" xmlns="http://www.w3.org/2000/svg">
<path d="M77.0814 19.6935C73.9644 19.6935 71.4239 22.0603 71.4239 25.32C71.4239 28.5598 73.9644 30.9464 77.0814 30.9464C80.1998 30.9464 82.7403 28.5598 82.7403 25.32C82.739 22.0603 80.1984 19.6935 77.0814 19.6935ZM77.0814 28.7318C75.3732 28.7318 73.9008 27.3255 73.9008 25.3213C73.9008 23.2959 75.3745 21.9108 77.0814 21.9108C78.7897 21.9108 80.2621 23.2959 80.2621 25.3213C80.2621 27.3242 78.7897 28.7318 77.0814 28.7318ZM64.7379 19.6935C61.6209 19.6935 59.0803 22.0603 59.0803 25.32C59.0803 28.5598 61.6209 30.9464 64.7379 30.9464C67.8562 30.9464 70.3968 28.5598 70.3968 25.32C70.3968 22.0603 67.8562 19.6935 64.7379 19.6935ZM64.7379 28.7318C63.0296 28.7318 61.5573 27.3255 61.5573 25.3213C61.5573 23.2959 63.031 21.9108 64.7379 21.9108C66.4462 21.9108 67.9185 23.2959 67.9185 25.3213C67.9199 27.3242 66.4462 28.7318 64.7379 28.7318ZM50.0566 21.4213V23.8078H55.7791C55.6081 25.1506 55.1602 26.1309 54.4764 26.8122C53.6441 27.643 52.3414 28.5598 50.0566 28.5598C46.5341 28.5598 43.7802 25.7248 43.7802 22.2084C43.7802 18.6921 46.5341 15.857 50.0566 15.857C51.957 15.857 53.3446 16.6032 54.369 17.5623L56.0561 15.8782C54.6248 14.5143 52.7257 13.4705 50.0566 13.4705C45.2313 13.4705 41.1747 17.3916 41.1747 22.2084C41.1747 27.0252 45.2313 30.9464 50.0566 30.9464C52.6608 30.9464 54.6261 30.0931 56.1621 28.495C57.7418 26.9181 58.2335 24.7008 58.2335 22.9109C58.2335 22.3579 58.1911 21.8459 58.1049 21.42H50.0566V21.4213ZM110.102 23.2747C109.633 22.0179 108.201 19.6935 105.276 19.6935C102.373 19.6935 99.9595 21.9743 99.9595 25.32C99.9595 28.4738 102.352 30.9464 105.553 30.9464C108.136 30.9464 109.631 29.3695 110.251 28.4527L108.33 27.1734C107.69 28.1113 106.814 28.7292 105.553 28.7292C104.294 28.7292 103.397 28.1537 102.821 27.0239L110.358 23.9124L110.102 23.2747ZM102.415 25.1506C102.352 22.9757 104.102 21.8684 105.363 21.8684C106.345 21.8684 107.177 22.3592 107.455 23.0617L102.415 25.1506ZM96.2885 30.6064H98.7641V14.0684H96.2885V30.6064ZM92.2305 20.9516H92.1457C91.5904 20.2902 90.5223 19.6935 89.1784 19.6935C86.3596 19.6935 83.7767 22.1661 83.7767 25.3425C83.7767 28.4963 86.3596 30.9477 89.1784 30.9477C90.5236 30.9477 91.5904 30.3511 92.1457 29.6698H92.2305V30.4794C92.2305 32.6318 91.0775 33.7828 89.2208 33.7828C87.7047 33.7828 86.7651 32.6966 86.3808 31.7798L84.2246 32.6755C84.8435 34.1664 86.4868 36 89.2208 36C92.1245 36 94.5802 34.2947 94.5802 30.1381V20.0362H92.2319V20.9516H92.2305ZM89.3918 28.7318C87.6835 28.7318 86.2536 27.303 86.2536 25.3425C86.2536 23.3594 87.6835 21.9108 89.3918 21.9108C91.0776 21.9108 92.4015 23.3594 92.4015 25.3425C92.4015 27.303 91.0776 28.7318 89.3918 28.7318ZM121.703 14.0684H115.778V30.6064H118.249V24.341H121.702C124.442 24.341 127.138 22.3606 127.138 19.2054C127.138 16.0502 124.444 14.0684 121.703 14.0684ZM121.767 22.0391H118.249V16.3703H121.767C123.615 16.3703 124.665 17.8983 124.665 19.2054C124.665 20.486 123.615 22.0391 121.767 22.0391ZM137.05 19.6644C135.259 19.6644 133.405 20.4516 132.638 22.1965L134.833 23.1107C135.302 22.1965 136.176 21.8975 137.092 21.8975C138.371 21.8975 139.671 22.6635 139.692 24.0248V24.1955C139.244 23.9401 138.285 23.5578 137.113 23.5578C134.748 23.5578 132.338 24.8556 132.338 27.2805C132.338 29.4938 134.279 30.9186 136.452 30.9186C138.114 30.9186 139.031 30.1738 139.606 29.3007H139.691V30.5773H142.079V24.2365C142.08 21.3022 139.883 19.6644 137.05 19.6644ZM136.75 28.7278C135.942 28.7278 134.811 28.323 134.811 27.3229C134.811 26.0463 136.219 25.5568 137.434 25.5568C138.519 25.5568 139.032 25.7909 139.692 26.1098C139.5 27.643 138.179 28.7278 136.75 28.7278ZM150.775 20.0256L147.941 27.1959H147.856L144.914 20.0256H142.25L146.662 30.0468L144.146 35.6216H146.725L153.525 20.0256H150.775ZM128.503 30.6064H130.975V14.0684H128.503V30.6064Z" fill="#BBDDEF"/>
<path d="M49.6244 4.4688C49.6244 5.57742 49.2957 6.45982 48.6371 7.11864C47.8896 7.90181 46.9142 8.2934 45.7162 8.2934C44.5685 8.2934 43.5918 7.89652 42.79 7.10276C41.9869 6.30768 41.5853 5.32342 41.5853 4.14865C41.5853 2.97257 41.9869 1.98831 42.79 1.19455C43.5918 0.399463 44.5685 0.00258492 45.7162 0.00258492C46.286 0.00258492 46.8307 0.113711 47.3476 0.33464C47.8658 0.556893 48.2806 0.851907 48.5907 1.22101L47.8923 1.91951C47.3661 1.29112 46.6412 0.977585 45.7148 0.977585C44.8773 0.977585 44.1537 1.27128 43.5427 1.85866C42.9318 2.44604 42.627 3.20937 42.627 4.14733C42.627 5.08529 42.9318 5.84862 43.5427 6.436C44.1537 7.02339 44.8773 7.31708 45.7148 7.31708C46.6028 7.31708 47.3436 7.02206 47.936 6.43071C48.3203 6.04574 48.543 5.50995 48.6026 4.82335H45.7148V3.86952H49.5674C49.6072 4.07722 49.6244 4.27698 49.6244 4.4688Z" fill="#BBDDEF"/>
<path d="M55.734 1.15361H52.1134V3.66983H55.3788V4.62366H52.1134V7.13988H55.734V8.1162H51.0916V0.178609H55.734V1.15361Z" fill="#BBDDEF"/>
<path d="M60.0423 8.1162H59.0205V1.15361H56.7993V0.178609H62.2634V1.15361H60.0423V8.1162Z" fill="#BBDDEF"/>
<path d="M66.2166 8.1162V0.178609H67.2384V8.1162H66.2166Z" fill="#BBDDEF"/>
<path d="M71.7697 8.1162H70.7479V1.15361H68.5268V0.178609H73.9908V1.15361H71.7697V8.1162Z" fill="#BBDDEF"/>
<path d="M84.3342 7.09092C83.5523 7.89262 82.5809 8.29346 81.4186 8.29346C80.2564 8.29346 79.285 7.89262 78.5044 7.09092C77.7225 6.28922 77.3329 5.3076 77.3329 4.14739C77.3329 2.98718 77.7225 2.00557 78.5044 1.20387C79.285 0.402171 80.2564 0 81.4186 0C82.5743 0 83.5444 0.403494 84.3289 1.20916C85.1135 2.01483 85.5058 2.9938 85.5058 4.14739C85.5058 5.3076 85.1148 6.28922 84.3342 7.09092ZM79.2585 6.42548C79.8469 7.0208 80.5665 7.31714 81.4186 7.31714C82.2708 7.31714 82.9917 7.01948 83.5788 6.42548C84.1673 5.83016 84.4628 5.0708 84.4628 4.14739C84.4628 3.22399 84.1673 2.46462 83.5788 1.8693C82.9917 1.27398 82.2708 0.977647 81.4186 0.977647C80.5665 0.977647 79.8469 1.27531 79.2585 1.8693C78.6714 2.46462 78.3758 3.22399 78.3758 4.14739C78.3758 5.0708 78.6714 5.83016 79.2585 6.42548Z" fill="#BBDDEF"/>
<path d="M86.9397 8.1162V0.178609H88.1828L92.0473 6.35273H92.091L92.0473 4.82342V0.178609H93.0691V8.1162H92.0022L87.9589 1.64177H87.9151L87.9589 3.17108V8.1162H86.9397Z" fill="#BBDDEF"/>
<path fill-rule="evenodd" clip-rule="evenodd" d="M0.317844 1.30308C0.114257 1.68224 0 2.16851 0 2.74827V32.0062C0 32.5879 0.114618 33.0744 0.31881 33.4535L16.4207 17.3776L0.317844 1.30308ZM1.01105 34.1754C1.61895 34.5142 2.45188 34.4653 3.3675 33.947L22.2751 23.2217L17.1284 18.0841L1.01105 34.1754ZM23.1785 22.7106L29.2115 19.2889C31.0629 18.2372 31.0629 16.5187 29.2115 15.4683L23.177 12.0453L17.8361 17.3776L23.1785 22.7106ZM22.2744 11.5334L3.3675 0.808863C2.45131 0.289144 1.61791 0.241187 1.00991 0.580962L17.1284 16.6711L22.2744 11.5334Z" fill="#BBDDEF"/>
</svg>
