<svg width="1102" height="128" viewBox="0 0 1102 128" fill="none" xmlns="http://www.w3.org/2000/svg">
<rect x="516" y="45" width="4" height="98" rx="2" transform="rotate(90 516 45)" fill="#12CEF0"/>
<rect x="1005" y="45" width="4.00002" height="463" rx="2.00001" transform="rotate(90 1005 45)" fill="#12CEF0"/>
<rect x="374" y="45" width="4" height="232" rx="2" transform="rotate(90 374 45)" fill="#12CEF0"/>
<rect x="410" y="45" width="4" height="10" rx="2" transform="rotate(90 410 45)" fill="#12CEF0"/>
<rect x="534" y="45" width="4" height="10" rx="2" transform="rotate(90 534 45)" fill="#12CEF0"/>
<rect x="1023" y="45" width="4" height="10" rx="2" transform="rotate(90 1023 45)" fill="#12CEF0"/>
<rect x="1098" y="118" width="4" height="10" rx="2" fill="#12CEF0"/>
<rect x="134" y="45" width="4" height="10" rx="2" transform="rotate(90 134 45)" fill="#12CEF0"/>
<rect x="392" y="45" width="4" height="10" rx="2" transform="rotate(90 392 45)" fill="#12CEF0"/>
<path d="M2 2V31C2 39.8366 9.16344 47 18 47H114" stroke="#12CEF0" stroke-width="4" stroke-linecap="round"/>
<path d="M1100 108L1100 63C1100 54.1635 1092.84 47 1084 47L1033 47" stroke="#12CEF0" stroke-width="4" stroke-linecap="round"/>
</svg>
