<svg width="1103" height="131" viewBox="0 0 1103 131" fill="none" xmlns="http://www.w3.org/2000/svg">
<rect x="518" y="52" width="4" height="98" rx="2" transform="rotate(90 518 52)" fill="#12CEF0"/>
<rect x="978" y="52" width="4.00002" height="434" rx="2.00001" transform="rotate(90 978 52)" fill="#12CEF0"/>
<rect x="376" y="52" width="4" height="232" rx="2" transform="rotate(90 376 52)" fill="#12CEF0"/>
<rect x="412" y="52" width="4" height="10" rx="2" transform="rotate(90 412 52)" fill="#12CEF0"/>
<rect x="4" y="131" width="4" height="10" rx="2" transform="rotate(-180 4 131)" fill="#12CEF0"/>
<rect x="1014" y="52" width="4" height="10" rx="2" transform="rotate(90 1014 52)" fill="#12CEF0"/>
<rect x="536" y="52" width="4" height="10" rx="2" transform="rotate(90 536 52)" fill="#12CEF0"/>
<rect x="136" y="52" width="4" height="10" rx="2" transform="rotate(90 136 52)" fill="#12CEF0"/>
<rect x="118" y="52" width="4" height="10" rx="2" transform="rotate(90 118 52)" fill="#12CEF0"/>
<rect x="394" y="52" width="4" height="10" rx="2" transform="rotate(90 394 52)" fill="#12CEF0"/>
<rect x="996" y="52" width="4" height="10" rx="2" transform="rotate(90 996 52)" fill="#12CEF0"/>
<path d="M1101 2V38C1101 46.8366 1093.84 54 1085 54H1024" stroke="#12CEF0" stroke-width="4" stroke-linecap="round"/>
<path d="M2 111L2 70C2 61.1634 9.16345 54 18 54L98 54" stroke="#12CEF0" stroke-width="4" stroke-linecap="round"/>
</svg>
